<svg xmlns="http://www.w3.org/2000/svg" width="256" height="256" viewBox="0 0 100 100"><rect width="100" height="100" rx="20" fill="#27272a"></rect><path fill="#fff" d="M47.27 39.03L43.42 39.03Q43.05 35.38 40.20 33.23Q37.34 31.08 33.02 31.08L33.02 31.08Q29.97 31.08 27.66 32.12Q25.35 33.17 24.04 35.01Q22.73 36.85 22.73 39.20L22.73 39.20Q22.73 40.92 23.47 42.22Q24.22 43.52 25.49 44.45Q26.75 45.38 28.30 46.04Q29.84 46.70 31.42 47.14L31.42 47.14L36.02 48.47Q38.11 49.04 40.20 49.94Q42.29 50.83 44.02 52.18Q45.76 53.54 46.81 55.49Q47.87 57.44 47.87 60.16L47.87 60.16Q47.87 63.66 46.06 66.45Q44.25 69.24 40.86 70.87Q37.47 72.50 32.74 72.50L32.74 72.50Q28.29 72.50 25.01 71.02Q21.73 69.54 19.85 66.92Q17.98 64.30 17.74 60.85L17.74 60.85L21.83 60.85Q22.05 63.42 23.54 65.21Q25.03 67.00 27.41 67.93Q29.80 68.86 32.74 68.86L32.74 68.86Q36.00 68.86 38.55 67.76Q41.09 66.66 42.55 64.69Q44.01 62.72 44.01 60.10L44.01 60.10Q44.01 57.88 42.86 56.38Q41.71 54.88 39.66 53.86Q37.60 52.83 34.89 52.05L34.89 52.05L29.67 50.51Q24.54 48.98 21.70 46.27Q18.87 43.57 18.87 39.37L18.87 39.37Q18.87 35.85 20.76 33.18Q22.64 30.50 25.87 29.00Q29.10 27.50 33.13 27.50L33.13 27.50Q37.19 27.50 40.33 28.99Q43.46 30.48 45.30 33.09Q47.14 35.70 47.27 39.03L47.27 39.03ZM82.26 71.75L57.48 71.75L57.48 28.12L61.46 28.12L61.46 68.17L82.26 68.17L82.26 71.75Z"></path></svg>